<?xml version="1.0" encoding="utf-8"?>
<svg id="master-artboard" viewBox="0 0 976.7909545898438 365.02435302734375" version="1.1" xmlns="http://www.w3.org/2000/svg" x="0px" y="0px" style="enable-background:new 0 0 1400 980;" width="976.7909545898438px" height="365.02435302734375px"><rect id="ee-background" x="0" y="0" width="976.7909545898438" height="365.02435302734375" style="fill: white; fill-opacity: 0; pointer-events: none;"/><g transform="matrix(6.363636493682861, 0, 0, 6.363636493682861, -4.959459167244859, -6.7437744140625)"><path d="M 18 4 H 42 A 14 14 0 0 1 56 18 V 42 A 14 14 0 0 1 42 56 H 18 A 14 14 0 0 1 4 42 V 18 A 14 14 0 0 1 18 4 Z" fill="#0F172A"/><path d="M34 8L17 33H29L24 52L43 25H31L34 8Z" fill="#FACC15"/><path d="M10 42H17L22 34L28 42H36L41 36L50 42" stroke="#22C55E" stroke-width="3" stroke-linecap="round" stroke-linejoin="round"/><text x="70" y="27" font-family="Arial, Helvetica, sans-serif" font-size="22" font-weight="700" fill="#0F172A" style="font-family: Arial, Helvetica, sans-serif; font-size: 22px; font-weight: 700; fill: rgb(15, 23, 42); white-space: pre;">
    Flow
  </text><text x="70" y="48" font-family="Arial, Helvetica, sans-serif" font-size="18" font-weight="500" fill="#22C55E" style="font-family: Arial, Helvetica, sans-serif; font-size: 18px; font-weight: 500; fill: rgb(34, 197, 94); white-space: pre;">
    Sense
  </text></g></svg>